#!OML:ASF E:\emotionWalksFemale\Project 1\Capture day 1\Session 1\Female1.ASF
:FULLY-SPECIFIED
:DEGREES
1642
root 8.26213 14.6155 -38.1237 356.296 20.8378 12.8428
lowerback 10.0107 -4.64772 4.91056
upperback -2.01159 -5.24496 3.83525
thorax -7.83905 -2.66331 2.19463
lowerneck -2.02591 0.987689 3.28808
upperneck 20.4778 3.67434 -13.4698
head 6.81532 1.05146 -4.70997
rclavicle 6.89783e-014 -2.54444e-014
rhumerus -32.9051 -6.84358 -70.2175
rradius 36.0889
rwrist 11.8151
rhand 1.89528 -59.3805
rfingers 7.12502
rthumb 27.4044 992.592
lclavicle 6.89783e-014 -2.54444e-014
lhumerus -34.6589 8.95104 86.9616
lradius 31.9451
lwrist -19.8995
lhand 2.93661 -28.9823
lfingers 7.12502
lthumb 28.4 -1.11694
rfemur -4.05434 13.389 20.8531
rtibia 49.9377
rfoot -32.0047 -37.5511
rtoes 14.7505
lfemur -23.5541 -5.86263 -26.4348
ltibia 56.293
lfoot 16.7778 -17.1384
ltoes 33.3877
1643
root 8.25695 14.6134 -38.1238 356.2 20.7954 12.8047
lowerback 10.2531 -4.58178 4.95833
upperback -2.00002 -5.13043 3.85019
thorax -7.96817 -2.60826 2.18615
lowerneck -2.01664 1.00944 3.20946
upperneck 20.4956 3.70783 -13.427
head 6.82136 1.06549 -4.67999
rclavicle 5.24792e-014 0
rhumerus -32.8358 -6.63722 -70.4155
rradius 36.0457
rwrist 12.4886
rhand 1.94625 -58.512
rfingers 7.12502
rthumb 27.4532 993.469
lclavicle 5.24792e-014 0
lhumerus -34.8671 10.0744 86.1379
lradius 31.1429
lwrist -20.8072
lhand 2.77197 -29.3958
lfingers 7.12502
lthumb 28.2426 -1.50436
rfemur -4.00907 13.4604 20.9415
rtibia 50.0143
rfoot -32.2334 -37.5022
rtoes 15.4529
lfemur -23.5724 -5.95758 -26.3513
ltibia 56.4161
lfoot 16.9128 -16.9697
ltoes 34.039
1644
root 8.24862 14.6098 -38.1214 356.051 20.8686 12.737
lowerback 10.5452 -4.55612 4.9436
upperback -1.93701 -5.07285 3.90591
thorax -8.06104 -2.5763 2.26548
lowerneck -2.29026 1.02834 3.0441
upperneck 20.6237 3.75041 -13.3381
head 6.9138 1.06626 -4.6211
rclavicle -4.23411e-014 -9.54166e-015
rhumerus -32.7237 -6.21048 -70.7223
rradius 35.9117
rwrist 12.9292
rhand 1.05819 -57.8336
rfingers 7.12502
rthumb 26.6035 994.015
lclavicle -4.23411e-014 -9.54166e-015
lhumerus -35.0451 11.019 85.4297
lradius 30.5682
lwrist -21.639
lhand 3.11796 -29.2702
lfingers 7.12502
lthumb 28.5733 -1.43385
rfemur -3.90653 13.3459 21.0593
rtibia 50.115
rfoot -32.3424 -37.4123
rtoes 15.4316
lfemur -23.5461 -6.12254 -26.2379
ltibia 56.5757
lfoot 17.0647 -16.8909
ltoes 34.4818
1645
root 8.23743 14.601 -38.1185 356.032 21.0197 12.7147
lowerback 10.3801 -4.45916 4.7553
upperback -1.936 -4.98108 3.9332
thorax -7.94455 -2.52374 2.36559
lowerneck -1.81604 0.869542 2.98963
upperneck 20.5312 3.5052 -13.258
head 6.77344 0.971527 -4.59869
rclavicle 3.16068e-014 -3.81667e-014
rhumerus -33.0191 -5.66977 -71.0905
rradius 35.7719
rwrist 13.3505
rhand -0.687842 -57.2462
rfingers 7.12502
rthumb 24.9314 994.36
lclavicle 3.16068e-014 -3.81667e-014
lhumerus -35.5423 11.5108 84.8155
lradius 30.3807
lwrist -22.3402
lhand 3.07514 -28.4022
lfingers 7.12502
lthumb 28.5324 -0.558956
rfemur -3.93205 13.1231 21.1035
rtibia 50.2188
rfoot -32.5617 -37.2482
rtoes 15.6308
lfemur -23.657 -6.27153 -26.1409
ltibia 56.7551
lfoot 17.2464 -16.8589
ltoes 34.1169
1646
root 8.2333 14.5902 -38.1205 356.04 21.0956 12.7678
lowerback 10.1616 -4.42652 4.72216
upperback -1.71401 -4.96809 3.96436
thorax -7.57392 -2.51468 2.37836
lowerneck -1.91493 0.83148 2.55299
upperneck 20.3541 3.43097 -13.045
head 6.722 0.920945 -4.45052
rclavicle 2.38542e-014 -3.18055e-015
rhumerus -32.5743 -5.31762 -71.3267
rradius 35.4178
rwrist 13.6936
rhand -1.79749 -56.4234
rfingers 7.12502
rthumb 23.8676 995.04
lclavicle 2.38542e-014 -3.18055e-015
lhumerus -35.4992 12.5308 84.1982
lradius 30.069
lwrist -23.2717
lhand 3.4235 -27.77
lfingers 7.12502
lthumb 28.8652 0.0168715
rfemur -3.99587 12.9779 21.0331
rtibia 50.3369
rfoot -32.8986 -36.9923
rtoes 16.3985
lfemur -23.7645 -6.43154 -26.1446
ltibia 56.9164
lfoot 17.4618 -16.6938
ltoes 34.2968
1647
root 8.23008 14.5877 -38.1165 356.073 21.1126 12.8477
lowerback 10.248 -4.21914 4.55069
upperback -1.70798 -4.71078 3.94148
thorax -7.60321 -2.38306 2.41117
lowerneck -1.9188 0.687544 2.79942
upperneck 20.3125 3.22232 -13.1341
head 6.69295 0.834154 -4.53531
rclavicle -1.08735e-013 9.22361e-014
rhumerus -32.6339 -5.45003 -71.2205
rradius 35.4094
rwrist 14.3104
rhand -0.968946 -56.6594
rfingers 7.12502
rthumb 24.662 994.91
lclavicle -1.08735e-013 9.22361e-014
lhumerus -35.6527 13.0275 83.5994
lradius 29.6155
lwrist -24.251
lhand -1.43186 -30.0504
lfingers 7.12502
lthumb 24.2182 -1.55971
rfemur -4.02424 12.9138 20.9465
rtibia 50.4099
rfoot -32.9772 -36.9237
rtoes 16.5187
lfemur -23.8245 -6.53022 -26.1798
ltibia 57.0156
lfoot 17.4907 -16.7489
ltoes 33.5154
1648
root 8.22672 14.5901 -38.1115 356.135 21.1431 12.9311
lowerback 10.1406 -4.11485 4.6204
upperback -1.66153 -4.58231 3.83161
thorax -7.50651 -2.32648 2.22226
lowerneck -1.94607 0.636702 2.88853
upperneck 20.3369 3.14153 -13.099
head 6.69841 0.803202 -4.54475
rclavicle 6.69904e-014 -5.08889e-014
rhumerus -32.62 -5.26626 -71.3691
rradius 35.3203
rwrist 14.3032
rhand -0.664609 -56.9232
rfingers 7.12502
rthumb 24.9536 994.686
lclavicle 6.69904e-014 -5.08889e-014
lhumerus -35.9115 13.3373 82.9359
lradius 29.4343
lwrist -24.8125
lhand -2.62159 -31.0366
lfingers 7.12502
lthumb 23.0771 -2.39846
rfemur -4.0435 12.8019 20.8319
rtibia 50.411
rfoot -32.6921 -37.096
rtoes 15.5895
lfemur -23.8847 -6.58444 -26.2299
ltibia 57.0687
lfoot 17.3308 -16.8573
ltoes 31.9009
1649
root 8.22287 14.5919 -38.1071 356.263 21.1479 12.8953
lowerback 9.79922 -4.0047 4.5669
upperback -1.58171 -4.4661 3.92252
thorax -7.2135 -2.26592 2.29429
lowerneck -2.05192 0.565654 2.7532
upperneck 20.4588 3.06733 -13.0818
head 6.74915 0.751729 -4.52324
rclavicle -5.84427e-014 8.90555e-014
rhumerus -32.4526 -4.85942 -71.3721
rradius 35.1331
rwrist 13.8583
rhand -0.761626 -57.3077
rfingers 7.12502
rthumb 24.8607 994.289
lclavicle -5.84427e-014 8.90555e-014
lhumerus -36.1289 13.8779 82.4836
lradius 29.3987
lwrist -25.2079
lhand -2.05891 -31.6111
lfingers 7.12502
lthumb 23.6169 -3.04151
rfemur -4.1678 12.78 20.8442
rtibia 50.3614
rfoot -32.4362 -37.2601
rtoes 15.1603
lfemur -24.0703 -6.59227 -26.1462
ltibia 57.0965
lfoot 17.5133 -16.5953
ltoes 32.8981
1650
root 8.21778 14.5936 -38.1049 356.232 21.1994 12.6597
lowerback 9.79926 -3.91574 4.77815
upperback -1.61045 -4.31409 3.98686
thorax -7.25622 -2.19855 2.22276
lowerneck -2.05905 0.474267 2.70412
upperneck 20.6231 2.94928 -13.0024
head 6.79164 0.692432 -4.49992
rclavicle 7.49418e-014 -2.22639e-014
rhumerus -32.4881 -4.62006 -71.3489
rradius 34.9174
rwrist 13.5819
rhand -0.772667 -57.4881
rfingers 7.12502
rthumb 24.8501 994.107
lclavicle 7.49418e-014 -2.22639e-014
lhumerus -36.4502 14.3124 81.9333
lradius 29.4751
lwrist -25.0197
lhand -0.5758 -31.6277
lfingers 7.12502
lthumb 25.0387 -3.24888
rfemur -4.17786 12.8103 21.1193
rtibia 50.2798
rfoot -32.5184 -37.248
rtoes 15.7411
lfemur -24.209 -6.65473 -25.8594
ltibia 57.1382
lfoot 17.8543 -16.2106
ltoes 34.9009
1651
root 8.21157 14.5938 -38.1018 356.254 21.2925 12.4477
lowerback 9.6626 -3.85292 4.89014
upperback -1.62098 -4.21804 4.0972
thorax -7.18965 -2.15354 2.25155
lowerneck -1.95081 0.423492 2.60534
upperneck 20.5941 2.88265 -12.9899
head 6.75627 0.659584 -4.48158
rclavicle -2.0276e-014 1.90833e-014
rhumerus -32.464 -4.31561 -71.2475
rradius 34.7485
rwrist 13.509
rhand -0.38518 -57.4547
rfingers 7.12502
rthumb 25.2214 994.192
lclavicle -2.0276e-014 1.90833e-014
lhumerus -36.7608 14.9063 81.3612
lradius 29.7159
lwrist -24.1772
lhand 2.09122 -31.4877
lfingers 7.12502
lthumb 27.5918 -3.4904
rfemur -4.23944 12.756 21.3468
rtibia 50.1972
rfoot -32.5975 -37.1799
rtoes 16.119
lfemur -24.3974 -6.75341 -25.6099
ltibia 57.1826
lfoot 18.0959 -15.9561
ltoes 35.8849
1652
root 8.20665 14.5912 -38.0954 356.255 21.4773 12.3874
lowerback 9.56362 -3.84445 4.88103
upperback -1.64912 -4.20824 4.17522
thorax -7.15674 -2.14675 2.33126
lowerneck -1.8568 0.402168 2.40604
upperneck 20.6326 2.8667 -12.9407
head 6.74921 0.643683 -4.43213
rclavicle -9.72057e-014 4.45278e-014
rhumerus -32.5624 -3.95922 -71.0758
rradius 34.6538
rwrist 13.6182
rhand 0.262369 -57.3592
rfingers 7.12502
rthumb 25.8417 994.376
lclavicle -9.72057e-014 4.45278e-014
lhumerus -37.1928 15.1802 81.0343
lradius 29.5509
lwrist -25.0855
lhand 0.269234 -32.3877
lfingers 7.12502
lthumb 25.8482 -4.12425
rfemur -4.15639 12.612 21.4285
rtibia 50.0843
rfoot -32.7551 -37.0713
rtoes 16.8828
lfemur -24.423 -6.89117 -25.5625
ltibia 57.2034
lfoot 18.1222 -16.0989
ltoes 35.1658
1653
root 8.20144 14.5942 -38.0857 356.22 21.7095 12.3864
lowerback 9.40766 -3.89318 4.8273
upperback -1.67974 -4.28376 4.26364
thorax -7.08966 -2.17968 2.45574
lowerneck -1.66357 0.38057 2.02688
upperneck 20.7245 2.8663 -12.8719
head 6.74228 0.625016 -4.34519
rclavicle 5.98342e-014 6.67916e-014
rhumerus -32.6392 -3.48478 -70.8601
rradius 34.4755
rwrist 13.8206
rhand 0.889239 -57.2147
rfingers 7.12502
rthumb 26.4418 994.61
lclavicle 5.98342e-014 6.67916e-014
lhumerus -37.6999 15.6282 80.6094
lradius 29.7305
lwrist -24.721
lhand 1.06167 -32.189
lfingers 7.12502
lthumb 26.6069 -4.03835
rfemur -3.96378 12.4487 21.4633
rtibia 49.9221
rfoot -33.0313 -36.9487
rtoes 17.7867
lfemur -24.3149 -7.05838 -25.5854
ltibia 57.1896
lfoot 17.871 -16.4444
ltoes 33.4235
1654
root 8.19608 14.6009 -38.0758 356.253 21.9326 12.3323
lowerback 9.59364 -3.9377 4.89768
upperback -1.92935 -4.30072 4.30829
thorax -7.46651 -2.19099 2.49877
lowerneck -1.58328 0.351562 1.83388
upperneck 21.0052 2.87815 -12.8874
head 6.81919 0.609419 -4.32358
rclavicle 1.94809e-014 2.54444e-014
rhumerus -33.0274 -2.91695 -70.711
rradius 34.4087
rwrist 13.7773
rhand 1.26244 -57.2026
rfingers 7.12502
rthumb 26.799 994.676
lclavicle 1.94809e-014 2.54444e-014
lhumerus -38.5514 15.7112 80.1417
lradius 30.2135
lwrist -23.5127
lhand 2.56966 -32.1705
lfingers 7.12502
lthumb 28.0493 -4.24721
rfemur -3.88185 12.2232 21.5017
rtibia 49.7183
rfoot -33.1101 -36.9079
rtoes 18.1094
lfemur -24.2969 -7.26995 -25.538
ltibia 57.1352
lfoot 17.8896 -16.2165
ltoes 34.3554
1655
root 8.19154 14.6081 -38.0659 356.348 22.1947 12.2643
lowerback 9.36385 -3.80475 5.06595
upperback -1.74369 -4.1404 4.20574
thorax -7.15576 -2.12096 2.24093
lowerneck -2.44106 0.211934 2.08013
upperneck 21.2753 2.69954 -12.853
head 7.04706 0.505153 -4.37557
rclavicle -6.02318e-014 -2.22639e-014
rhumerus -32.8394 -3.30167 -70.57
rradius 34.3623
rwrist 13.71
rhand 1.61589 -57.4502
rfingers 7.12502
rthumb 27.1372 994.481
lclavicle -6.02318e-014 -2.22639e-014
lhumerus -38.2631 15.2678 80.018
lradius 30.6326
lwrist -22.0023
lhand 4.38477 -32.2312
lfingers 7.12502
lthumb 29.783 -4.60486
rfemur -3.83341 11.9754 21.5492
rtibia 49.4868
rfoot -33.1646 -36.8969
rtoes 18.4386
lfemur -24.3389 -7.53097 -25.4697
ltibia 57.0594
lfoot 18.0355 -15.7468
ltoes 36.5132
